<svg id="Layer_1" data-name="Layer 1" xmlns="http://www.w3.org/2000/svg" viewBox="0 0 530 100"><defs><style>.cls-1{fill:#1c1b1b;stroke:#1c1b1b;stroke-miterlimit:10;stroke-width:0.5px;}</style></defs><title>logotip</title><path class="cls-1" d="M99.29,98.79H1.71V51c0-32.13,30.58-57.24,64.16-47.77,18.4,5.18,33.42,25.18,33.42,44.3ZM65.76,5.25C33.32-4.2,3.68,20,3.68,51V96.8l93.62,0a0,0,0,0,0,0,0V47.53C97.32,29.42,83.14,10.31,65.76,5.25Z"/><path class="cls-1" d="M60.87,68.06c.3-.33.58-.67.85-1l5.49-1.93a9.43,9.43,0,0,0,1-17.38,9.61,9.61,0,0,0-3.31-.88V45.38c0-3.27-10-4.15-15.84-4.15s-15.83.88-15.83,4.15V57.57a15.75,15.75,0,0,0,4,10.49c-4.75.71-9.71,2-9.71,4.53,0,4.21,14.1,5.32,21.55,5.32s21.55-1.11,21.55-5.32C70.58,70.1,65.62,68.77,60.87,68.06Zm4-10.49V51.69a4.55,4.55,0,0,1,1.22.37,4.61,4.61,0,0,1-.47,8.5L64.5,61A15.86,15.86,0,0,0,64.87,57.57Zm2.6-8.38a7.79,7.79,0,0,1-.79,14.38l-3.59,1.26a15.52,15.52,0,0,0,.86-2l2.21-.78a6.23,6.23,0,0,0,.63-11.49,6.09,6.09,0,0,0-1.92-.55V48.46A7.65,7.65,0,0,1,67.47,49.19ZM49,42.85c10.21,0,14.09,2,14.21,2.52-.12.54-4,2.54-14.21,2.54s-14.07-2-14.21-2.52h0C35,44.85,38.83,42.85,49,42.85ZM34.82,47.4C37.89,49,44.61,49.53,49,49.53S60.18,49,63.24,47.4V57.57a14.27,14.27,0,0,1-.7,4.4h0a14.37,14.37,0,0,1-2,3.86s0,0,0,0A15.16,15.16,0,0,1,58.67,68l-.14.12a14.16,14.16,0,0,1-19,0L39.4,68a14.18,14.18,0,0,1-4.58-10.43ZM49,76.29c-12.89,0-19.92-2.45-19.92-3.7,0-.62,2.35-2.17,9.54-3.09a15.78,15.78,0,0,0,20.77,0C66.61,70.42,69,72,69,72.59,69,73.84,61.93,76.29,49,76.29Z"/><path class="cls-1" d="M50.1,38.54a1,1,0,0,1-.84-.5,7.49,7.49,0,0,1,.46-8.14c.84-1.23,2-4.49,0-6.1a1,1,0,0,1,1.19-1.51c2.84,2.26,2,6.44.46,8.69a5.61,5.61,0,0,0-.39,6.14,1,1,0,0,1-.37,1.3A1,1,0,0,1,50.1,38.54Z"/><path class="cls-1" d="M56.56,38.54a1,1,0,0,1-.84-.5,7.49,7.49,0,0,1,.47-8.14c.83-1.23,2-4.49-.06-6.1a1,1,0,0,1,1.2-1.51c2.83,2.26,2,6.44.45,8.69a5.61,5.61,0,0,0-.38,6.14,1,1,0,0,1-.84,1.42Z"/><path class="cls-1" d="M43.63,38.54a1,1,0,0,1-.84-.5,7.49,7.49,0,0,1,.47-8.14c.84-1.23,2-4.49,0-6.1a1,1,0,0,1,1.19-1.51c2.84,2.26,2,6.44.45,8.69a5.61,5.61,0,0,0-.38,6.14,1,1,0,0,1-.37,1.3A1,1,0,0,1,43.63,38.54Z"/><path class="cls-1" d="M168.2,70.39a18.27,18.27,0,0,1-18.3,18.3H132.3v-70h17.6a17.56,17.56,0,0,1,12.95,5.4A17.68,17.68,0,0,1,168.2,37a17.82,17.82,0,0,1-2.95,10,18.13,18.13,0,0,1-7.75,6.7,18.12,18.12,0,0,1,7.75,6.75A17.91,17.91,0,0,1,168.2,70.39Zm-18.3-18.3a14.42,14.42,0,0,0,10.6-4.4A14.51,14.51,0,0,0,164.9,37a15,15,0,0,0-15-15H135.6v30.1Zm-14.3,3.3v30h14.3a15,15,0,0,0,15-15,15,15,0,0,0-15-15Zm14.3,31.4a16.39,16.39,0,0,0,16.4-16.4,16.39,16.39,0,0,1-16.4,16.4Zm17-16.4a16.45,16.45,0,0,0-3.9-10.8,16.76,16.76,0,0,0-9.8-5.9,16.76,16.76,0,0,1,9.8,5.9A16.45,16.45,0,0,1,166.9,70.39Zm-9.2-47.7a2.75,2.75,0,0,1,.7.4A2.75,2.75,0,0,0,157.7,22.69Zm1,62.2a5,5,0,0,0,.7-.4A5,5,0,0,1,158.7,84.89Zm2.2-35.8-.6.6Zm-.2,34.4a3.78,3.78,0,0,0,.6-.5A3.78,3.78,0,0,1,160.7,83.49Zm.9-.8.6-.6Zm.9-.9a3.78,3.78,0,0,0,.5-.6A3.78,3.78,0,0,1,162.5,81.79Zm1.8-52.55c-.13-.23-.27-.45-.4-.65.13.2.27.42.4.65a3.46,3.46,0,0,1,.3.75A3.46,3.46,0,0,0,164.3,29.24Zm0,15.55a6.23,6.23,0,0,1-.4.7A6.23,6.23,0,0,0,164.3,44.79Zm1-2.1a15,15,0,0,0,.6-2.4A15,15,0,0,1,165.3,42.69Zm.6-11.5a4.09,4.09,0,0,1-.3-.8A4.09,4.09,0,0,0,165.9,31.19Zm.2,8.3a15.53,15.53,0,0,0,.2-2.5A15.53,15.53,0,0,1,166.1,39.49Z"/><path class="cls-1" d="M175.8,18.69h11.7a23.31,23.31,0,0,1,17.1,7.1,23.34,23.34,0,0,1,7.1,17.1,23.58,23.58,0,0,1-5.7,15.6,23.44,23.44,0,0,1-9.5,6.9,23.68,23.68,0,0,1,15.2,22v1.3h-3.3v-1.3a20.14,20.14,0,0,0-20.2-20.2h-9.1v21.5h-3.3Zm8.5,3.3h-5.2v41.9h5.2Zm3.3,41.9a20.36,20.36,0,0,0,14.7-6.2,20.06,20.06,0,0,0,6.1-14.75,20.26,20.26,0,0,0-6.1-14.8A20,20,0,0,0,187.6,22Zm12.3,4.65a9.53,9.53,0,0,1-.8-.55,9.53,9.53,0,0,0,.8.55c.27.17.53.35.8.55C200.43,68.89,200.17,68.71,199.9,68.54Zm2.75,2-1.15-1,1.15,1a13.63,13.63,0,0,1,1,.95A13.63,13.63,0,0,0,202.65,70.54Zm2,2a8.17,8.17,0,0,0-.7-.8,8.17,8.17,0,0,1,.7.8c.33.34.65.69,1,1s.58.75.85,1.15a26.45,26.45,0,0,1,2.1,3.8c.33.8.63,1.57.9,2.3a23.93,23.93,0,0,1,.9,6.5,23.93,23.93,0,0,0-.9-6.5c-.27-.73-.57-1.5-.9-2.3a26.45,26.45,0,0,0-2.1-3.8c-.27-.4-.55-.78-.85-1.15S205,72.93,204.7,72.59Zm4.1-38.1c-.2-.46-.43-1-.7-1.5C208.37,33.53,208.6,34,208.8,34.49Z"/><path class="cls-1" d="M219.3,18.69h35.9V22H222.6v25.8h32.6v3.3H222.6v5.2h32.6v3.3H222.6v25.8h32.6v3.3H219.3Z"/><path class="cls-1" d="M268.8,19.69l14.8,60.5,8.5-34.8L286,20.29l-.4-1.6H289l.2,1,4.6,18.8,4.6-18.8.2-1H302l-.4,1.6-6.1,25.1,8.5,34.8,14.8-60.5.2-1h3.4l-.4,1.6-16.4,67.1-.1.3-.2,1h-2.6l-.2-1-.1-.3-8.6-35-8.6,35v.3l-.3,1h-2.6l-.2-1-.1-.3-16.4-67.1-.4-1.6h3.4Z"/><path class="cls-1" d="M332.4,18.69h35.9V22H352v5.2h16.3v3.3H352v58.2h-3.3V30.49H332.4v-3.3h16.3V22H332.4Z"/><path class="cls-1" d="M375.8,36.69a17.93,17.93,0,0,1,18-18,17.9,17.9,0,0,1,15.5,9,17.79,17.79,0,0,1,2.4,9v34.1a18,18,0,0,1-35.9,0Zm2,34.1a15,15,0,0,0,.2,2.4A15,15,0,0,1,377.8,70.79Zm.5,4c.07.2.13.44.2.7A9.1,9.1,0,0,0,379,77a9.1,9.1,0,0,1-.5-1.5c-.07-.26-.13-.5-.2-.7a8.77,8.77,0,0,1-.3-1.2A8.77,8.77,0,0,0,378.3,74.79Zm30.1-38.1a14.65,14.65,0,0,0-1.95-7.4,14.24,14.24,0,0,0-5.35-5.35,14.44,14.44,0,0,0-7.3-2,14.68,14.68,0,0,0-14.7,14.7v34.1a14.68,14.68,0,0,0,14.7,14.6,14.44,14.44,0,0,0,7.3-2,14.17,14.17,0,0,0,5.35-5.35,14.41,14.41,0,0,0,1.95-7.3ZM379.5,78a7,7,0,0,0-.3-.7,7,7,0,0,1,.3.7c.33.6.67,1.17,1,1.7a4.17,4.17,0,0,0,.7.9,4.17,4.17,0,0,1-.7-.9C380.17,79.16,379.83,78.59,379.5,78Zm1.9-51.5a3.78,3.78,0,0,0,.5-.6,3.78,3.78,0,0,1-.5.6q-.5.6-.9,1.2Q380.91,27.09,381.4,26.49ZM384.8,84a12.56,12.56,0,0,1-1.5-1.1A12.56,12.56,0,0,0,384.8,84Zm17.6-60.8a5,5,0,0,1-.7-.4A5,5,0,0,0,402.4,23.19Zm1.8,59.7a12.56,12.56,0,0,1-1.5,1.1A12.56,12.56,0,0,0,404.2,82.89ZM403,23.59a3.78,3.78,0,0,0,.6.5A3.78,3.78,0,0,1,403,23.59Zm3.1,2.9q.5.6.9,1.2-.4-.6-.9-1.2a3.78,3.78,0,0,0-.5-.6A3.78,3.78,0,0,1,406.1,26.49Z"/><path class="cls-1" d="M419.3,18.69H431a23.33,23.33,0,0,1,17.1,7.1,23.34,23.34,0,0,1,7.1,17.1A23.47,23.47,0,0,1,448.1,60,23.22,23.22,0,0,1,431,67.19h-8.4v21.5h-3.3Zm8.5,3.3h-5.2v41.9h5.2Zm3.3,41.9a20.36,20.36,0,0,0,14.7-6.2,20.13,20.13,0,0,0,6.1-14.8,20.9,20.9,0,0,0-2.75-10.45A20.58,20.58,0,0,0,431.1,22Z"/><path class="cls-1" d="M462.8,85.39h3.1V22h-3.1v-3.3h18V22h-3.1v63.4h3.1v3.3h-18ZM474.4,22h-5.2v63.4h5.2Z"/><path class="cls-1" d="M523.4,88.69V59.59H494.1v29.1h-3.3v-52a17.36,17.36,0,0,1,5.25-12.75,18,18,0,0,1,25.4,0,17.36,17.36,0,0,1,5.25,12.75v52Zm-29.8-57.2c-.07.27-.14.54-.2.8C493.46,32,493.53,31.76,493.6,31.49Zm.5,5.2v11.1h29.3V36.69a14.65,14.65,0,1,0-29.3,0Zm29.3,14.4H494.1v5.2h29.3Zm-29.2-21,.35-.7c.1-.2.22-.41.35-.65s.26-.45.4-.65c-.14.2-.27.42-.4.65s-.25.45-.35.65Zm2.2-3.6a3.78,3.78,0,0,0,.5-.6,3.78,3.78,0,0,1-.5.6,13.4,13.4,0,0,0-.9,1.2A13.4,13.4,0,0,1,496.4,26.49Zm21-3.3c-.2-.13-.44-.26-.7-.4C517,22.93,517.2,23.06,517.4,23.19Z"/></svg>