<svg id="Layer_1" data-name="Layer 1" xmlns="http://www.w3.org/2000/svg" viewBox="0 0 800 800"><defs><style>.cls-1{fill:#ae8157;}</style></defs><title>logo</title><path class="cls-1" d="M795,795.14H5V408.26C5,148.15,252.57-55.22,524.46,21.45c149,42,270.57,204,270.57,358.73ZM523.53,37.73C260.92-38.79,20.85,157.23,20.85,408.26V779l758.08.22a.22.22,0,0,0,.22-.22V380.13C779.15,233.49,664.31,78.75,523.53,37.73Z"/><path class="cls-1" d="M484,553.45c2.39-2.68,4.69-5.45,6.85-8.33l44.5-15.61a76.29,76.29,0,0,0,7.79-140.74,75.31,75.31,0,0,0-26.8-7.12V369.82c0-26.54-80.59-33.62-128.2-33.62s-128.2,7.08-128.2,33.62v98.65a127.65,127.65,0,0,0,32.33,85c-38.48,5.7-78.61,16.47-78.61,36.66,0,34.1,114.13,43.12,174.48,43.12s174.48-9,174.48-43.12C562.6,569.92,522.47,559.15,484,553.45Zm32.34-85V420.93a34.84,34.84,0,0,1,9.91,3,37.28,37.28,0,0,1-3.8,68.8l-9.09,3.2A128.05,128.05,0,0,0,516.32,468.47Zm21.11-67.85A63.13,63.13,0,0,1,531,517.1l-29,10.18a128.51,128.51,0,0,0,6.93-15.89l17.87-6.27a50.43,50.43,0,0,0,5.14-93.05,48.16,48.16,0,0,0-15.6-4.44v-12.9A62.48,62.48,0,0,1,537.43,400.62ZM388.12,349.35c82.64,0,114,16.18,115.06,20.39-1,4.35-32.43,20.54-115.06,20.54s-114-16.16-115-20.39h0C274.14,365.51,305.54,349.35,388.12,349.35Zm-115,36.79c24.79,13.27,79.24,17.28,115.05,17.28s90.26-4,115.06-17.28v82.33a114.8,114.8,0,0,1-5.67,35.64l-.06.11A114.46,114.46,0,0,1,481.5,535.5c-.06.08-.08.17-.13.25A115.93,115.93,0,0,1,466.13,553a7,7,0,0,0-1.1,1,114.8,114.8,0,0,1-153.83,0,6.85,6.85,0,0,0-1.08-1,114.75,114.75,0,0,1-37.05-84.48Zm115.05,234c-104.4,0-161.34-19.82-161.34-30,0-5,19-17.54,77.26-25a127.81,127.81,0,0,0,168.16,0c58.22,7.45,77.26,20,77.26,25C549.46,600.27,492.51,620.09,388.12,620.09Z"/><path class="cls-1" d="M396.72,314.4a7.75,7.75,0,0,1-6.8-4c-11.81-21.4-10.46-44.8,3.8-65.9,6.77-10,16-36.35-.45-49.43a7.77,7.77,0,0,1,9.65-12.18c23,18.23,16,52.09,3.68,70.31-7.66,11.33-14.42,29.15-3.08,49.7a7.75,7.75,0,0,1-3,10.55A7.65,7.65,0,0,1,396.72,314.4Z"/><path class="cls-1" d="M449.06,314.4a7.78,7.78,0,0,1-6.81-4c-11.8-21.4-10.46-44.8,3.81-65.9,6.76-10,16-36.35-.45-49.43a7.77,7.77,0,0,1,9.65-12.18c23,18.23,16,52.09,3.67,70.31-7.66,11.33-14.41,29.15-3.07,49.7a7.77,7.77,0,0,1-3.06,10.55A7.65,7.65,0,0,1,449.06,314.4Z"/><path class="cls-1" d="M344.39,314.4a7.77,7.77,0,0,1-6.81-4c-11.81-21.4-10.45-44.8,3.81-65.9,6.76-10,16-36.35-.45-49.43a7.77,7.77,0,0,1,9.65-12.18c23,18.23,16,52.09,3.67,70.31-7.66,11.33-14.42,29.15-3.08,49.7a7.77,7.77,0,0,1-6.79,11.52Z"/></svg>