<svg id="Layer_1" data-name="Layer 1" xmlns="http://www.w3.org/2000/svg" xmlns:xlink="http://www.w3.org/1999/xlink" viewBox="0 0 250 100"><defs><style>.cls-1,.cls-2,.cls-5{fill:none;}.cls-2{clip-rule:evenodd;}.cls-3{clip-path:url(#clip-path);}.cls-4{clip-path:url(#clip-path-2);}.cls-5{stroke:#ae8157;stroke-miterlimit:10;stroke-width:10.4px;}.cls-6{clip-path:url(#clip-path-3);}.cls-7{clip-path:url(#clip-path-4);}.cls-8{clip-path:url(#clip-path-5);}.cls-9{clip-path:url(#clip-path-6);}.cls-10{fill:#ae8157;}</style><clipPath id="clip-path"><rect class="cls-1" x="3.48" y="21.71" width="56.58" height="56.58" rx="2.62"/></clipPath><clipPath id="clip-path-2"><rect class="cls-1" x="-78.52" y="-47.17" width="410" height="410"/></clipPath><clipPath id="clip-path-3"><path class="cls-2" d="M18.4,21.71H44.07A28.3,28.3,0,0,1,72.36,50V75.67a2.62,2.62,0,0,1-2.62,2.62H44.07A28.3,28.3,0,0,1,15.78,50V24.33A2.63,2.63,0,0,1,18.4,21.71Z"/></clipPath><clipPath id="clip-path-4"><rect class="cls-1" x="-78.52" y="-58.65" width="410" height="410"/></clipPath><clipPath id="clip-path-5"><path class="cls-2" d="M246.49,60.2a2.3,2.3,0,0,1,.95.78,2.12,2.12,0,0,1,.33,1.18,2.29,2.29,0,0,1-1.28,2,6.24,6.24,0,0,1-3.18.75A6.55,6.55,0,0,1,238,62.6a9.62,9.62,0,0,1-1.95-6.35V39.63h-4.18a2.65,2.65,0,0,1-.28-1.23,2.13,2.13,0,0,1,.73-1.73,2.81,2.81,0,0,1,1.89-.61h1.84V32a3.7,3.7,0,0,1,.78-2.48,2.75,2.75,0,0,1,2.23-.92,5.21,5.21,0,0,1,1.56.22v7.25h6.42a2.78,2.78,0,0,1,.28,1.23A2.16,2.16,0,0,1,246.6,39a2.87,2.87,0,0,1-1.9.61h-4.07V56.25a5.82,5.82,0,0,0,.81,3.37A2.91,2.91,0,0,0,244,60.76,6.15,6.15,0,0,0,246.49,60.2Zm-23.7,4.63a5.21,5.21,0,0,1-1.56-.22V39.13a3.7,3.7,0,0,1,.78-2.48,2.74,2.74,0,0,1,2.23-.92,5.21,5.21,0,0,1,1.56.22V61.43a3.7,3.7,0,0,1-.78,2.48A2.74,2.74,0,0,1,222.79,64.83Zm.73-33.12a3.35,3.35,0,0,1-3.41-3.4,3.41,3.41,0,1,1,5.83,2.42A3.26,3.26,0,0,1,223.52,31.71Zm-13,16.39c-.07-3-.67-5.28-1.78-6.83A5.86,5.86,0,0,0,203.67,39a7.33,7.33,0,0,0-5.75,2.45,13.16,13.16,0,0,0-2.79,7.14Zm-7.08,17.07a12.9,12.9,0,0,1-6.8-1.79,11.85,11.85,0,0,1-4.57-5.13,17.7,17.7,0,0,1-1.62-7.8,18,18,0,0,1,1.65-7.92,12.49,12.49,0,0,1,4.57-5.27,12.27,12.27,0,0,1,6.77-1.87A10.54,10.54,0,0,1,212,39.1q3.09,3.7,3.1,10.06a3.76,3.76,0,0,1-.42,2.12,2.06,2.06,0,0,1-1.7.56H195a10.43,10.43,0,0,0,2.26,7,7.61,7.61,0,0,0,6.05,2.62,10.4,10.4,0,0,0,5-1.23A10,10,0,0,0,212,57a2.41,2.41,0,0,1,1.68,2.5,3.67,3.67,0,0,1-1.51,2.79,11.27,11.27,0,0,1-3.87,2.07A15.36,15.36,0,0,1,203.44,65.17Zm-27.38,0a12.93,12.93,0,0,1-6.91-1.82,11.58,11.58,0,0,1-4.52-5.18,18.64,18.64,0,0,1-1.56-7.89,18.64,18.64,0,0,1,1.56-7.89,11.66,11.66,0,0,1,4.52-5.19,13,13,0,0,1,6.91-1.81,15.68,15.68,0,0,1,5.11.81A10.17,10.17,0,0,1,185,38.4a4.22,4.22,0,0,1,1.45,3.07,2.31,2.31,0,0,1-1.73,2.4,9.51,9.51,0,0,0-3.66-3.29,10.64,10.64,0,0,0-5-1.17c-2.82,0-4.91.94-6.27,2.84s-2,4.57-2,8,.67,6.13,2,8,3.45,2.84,6.27,2.84a10.64,10.64,0,0,0,5-1.17,9.59,9.59,0,0,0,3.66-3.29,2.3,2.3,0,0,1,1.73,2.4A4.23,4.23,0,0,1,185,62.16a10.31,10.31,0,0,1-3.82,2.2A15.68,15.68,0,0,1,176.06,65.17ZM146.34,61.6a7.8,7.8,0,0,0,5-1.51A4.94,4.94,0,0,0,153.26,56V54.63a3.52,3.52,0,0,0-1.51-3,7.42,7.42,0,0,0-4.4-1.09A7.72,7.72,0,0,0,142.22,52a5.37,5.37,0,0,0-1.79,4.35,5,5,0,0,0,1.51,3.9A6.43,6.43,0,0,0,146.34,61.6Zm-.72,3.57a10.24,10.24,0,0,1-7.17-2.37,8.26,8.26,0,0,1-2.59-6.39,8.65,8.65,0,0,1,2.9-6.8q2.9-2.56,8-2.57a12.91,12.91,0,0,1,3.71.45,11.94,11.94,0,0,1,2.82,1.28V46.1a7.05,7.05,0,0,0-1.79-5.16,6.93,6.93,0,0,0-5.18-1.81,9.33,9.33,0,0,0-4.49,1,10.37,10.37,0,0,0-3.43,3.09,2.52,2.52,0,0,1-1.84-2.56c0-1.64,1-2.92,3-3.85a16.41,16.41,0,0,1,7-1.39q5.52,0,8.37,2.81t2.84,7.84V61.43a3.61,3.61,0,0,1-.81,2.48,2.83,2.83,0,0,1-2.26.92,5.79,5.79,0,0,1-1.5-.22v-2.9a7.52,7.52,0,0,1-3,2.62A10.63,10.63,0,0,1,145.62,65.17Zm-19.57-.34a5.21,5.21,0,0,1-1.56-.22V27.42a3.7,3.7,0,0,1,.78-2.48A2.74,2.74,0,0,1,127.5,24a5.21,5.21,0,0,1,1.56.22V61.43a3.7,3.7,0,0,1-.78,2.48A2.75,2.75,0,0,1,126.05,64.83Zm-20.86-3.34a7.11,7.11,0,0,0,6.16-3.1q2.2-3.09,2.21-8.72c0-3.42-.62-6.05-1.84-7.87a6,6,0,0,0-5.3-2.73,7.16,7.16,0,0,0-6,3q-2.28,3-2.28,8.2v2.9a9.3,9.3,0,0,0,1.81,6.1A6.37,6.37,0,0,0,105.19,61.49ZM95.21,76a5,5,0,0,1-1.5-.22V39.18a3.61,3.61,0,0,1,.81-2.48,2.84,2.84,0,0,1,2.25-.92,6.32,6.32,0,0,1,1.51.22v4.35a11.55,11.55,0,0,1,3.74-3.7,9.5,9.5,0,0,1,5-1.26,10.31,10.31,0,0,1,6,1.76,11.12,11.12,0,0,1,3.94,5,19.59,19.59,0,0,1,1.36,7.61,20,20,0,0,1-1.53,8.11,12.11,12.11,0,0,1-4.38,5.38,11.72,11.72,0,0,1-6.63,1.9,10.37,10.37,0,0,1-4.16-.76,11.74,11.74,0,0,1-3.26-2.09V72.58a3.61,3.61,0,0,1-.81,2.48A2.83,2.83,0,0,1,95.21,76Z"/></clipPath><clipPath id="clip-path-6"><rect class="cls-1" x="-78.52" y="-55.22" width="410" height="410"/></clipPath></defs><title>logo3</title><g class="cls-3"><g class="cls-4"><rect class="cls-5" x="3.48" y="21.71" width="56.58" height="56.58" rx="2.62"/></g></g><g class="cls-6"><g class="cls-7"><path class="cls-5" d="M18.4,21.71H44.07A28.3,28.3,0,0,1,72.36,50V75.67a2.62,2.62,0,0,1-2.62,2.62H44.07A28.3,28.3,0,0,1,15.78,50V24.33A2.62,2.62,0,0,1,18.4,21.71Z"/></g></g><g class="cls-8"><g class="cls-9"><rect class="cls-10" x="89.61" y="19.92" width="162.26" height="60.17"/></g></g></svg>