<svg id="Layer_1" data-name="Layer 1" xmlns="http://www.w3.org/2000/svg" xmlns:xlink="http://www.w3.org/1999/xlink" viewBox="0 0 250 100"><defs><style>.cls-1,.cls-2{fill:none;}.cls-2{clip-rule:evenodd;}.cls-3{clip-path:url(#clip-path);}.cls-4{clip-path:url(#clip-path-2);}.cls-5{fill:#ae8157;}.cls-6{clip-path:url(#clip-path-3);}.cls-7{clip-path:url(#clip-path-5);}.cls-8{clip-path:url(#clip-path-6);}.cls-9{clip-path:url(#clip-path-7);}.cls-10{clip-path:url(#clip-path-8);}</style><clipPath id="clip-path"><polygon class="cls-1" points="27.94 39.16 41.23 25.87 52.07 36.71 38.78 50 52.07 63.29 41.23 74.13 27.94 60.84 14.65 74.13 3.81 63.29 17.1 50 3.81 36.71 14.65 25.87 27.94 39.16"/></clipPath><clipPath id="clip-path-2"><rect class="cls-1" x="-73.48" y="-45.89" width="395" height="395"/></clipPath><clipPath id="clip-path-3"><polygon class="cls-1" points="98.82 50 112.11 63.29 101.27 74.13 87.98 60.84 74.69 74.13 63.85 63.29 77.14 50 63.85 36.71 74.69 25.87 87.98 39.16 101.27 25.87 112.11 36.71 98.82 50"/></clipPath><clipPath id="clip-path-5"><polygon class="cls-1" points="140.45 42.34 140.45 23.54 155.78 23.54 155.78 42.34 174.58 42.34 174.58 57.66 155.78 57.66 155.78 76.47 140.45 76.47 140.45 57.66 121.65 57.66 121.65 42.34 140.45 42.34"/></clipPath><clipPath id="clip-path-6"><rect class="cls-1" x="-73.48" y="-45.19" width="395" height="395"/></clipPath><clipPath id="clip-path-7"><path class="cls-2" d="M222,71.11a3.42,3.42,0,0,0-.17-1,2.31,2.31,0,0,0-.46-.79,2.14,2.14,0,0,0-.77-.52,2.88,2.88,0,0,0-1.07-.19,2.63,2.63,0,0,0-1.09.23,2.52,2.52,0,0,0-.83.58,2.73,2.73,0,0,0-.54.81,2.28,2.28,0,0,0-.19.87Zm-5.12,1.3a2.13,2.13,0,0,0,.25,1,2.45,2.45,0,0,0,.64.79,3,3,0,0,0,.92.5,3.22,3.22,0,0,0,1.08.18,2.44,2.44,0,0,0,1.31-.35,4.06,4.06,0,0,0,1-.93l1.22.94a4.52,4.52,0,0,1-3.78,1.75,4.7,4.7,0,0,1-1.83-.35A3.85,3.85,0,0,1,216.3,75a4.3,4.3,0,0,1-.88-1.42,5.16,5.16,0,0,1-.3-1.78,4.68,4.68,0,0,1,.33-1.77,4.45,4.45,0,0,1,.92-1.43,4.22,4.22,0,0,1,1.39-.94,4.47,4.47,0,0,1,1.77-.34,4.29,4.29,0,0,1,1.92.39,3.76,3.76,0,0,1,1.28,1,4,4,0,0,1,.73,1.44,6,6,0,0,1,.23,1.63v.58Zm-11.23-4.87h1.62v1.32h0a2.38,2.38,0,0,1,1.07-1.11,3.5,3.5,0,0,1,1.74-.42,3.6,3.6,0,0,1,1.18.19,2.59,2.59,0,0,1,1,.58,2.77,2.77,0,0,1,.68,1,3.83,3.83,0,0,1,.25,1.47v5.49h-1.62V71a2.8,2.8,0,0,0-.16-1,2,2,0,0,0-.43-.69,1.55,1.55,0,0,0-.63-.37,2.19,2.19,0,0,0-.73-.12,2.6,2.6,0,0,0-.93.16,2,2,0,0,0-.76.52,2.33,2.33,0,0,0-.5.89,4,4,0,0,0-.18,1.28v4.39h-1.62Zm-8.72,7.24a4.7,4.7,0,0,0,2-.4,4.67,4.67,0,0,0,2.48-2.7,5.75,5.75,0,0,0,0-4,4.69,4.69,0,0,0-1-1.61A4.61,4.61,0,0,0,198.87,65a5,5,0,0,0-4,0,4.65,4.65,0,0,0-1.52,1.09,4.85,4.85,0,0,0-1,1.61,5.91,5.91,0,0,0,0,4,5,5,0,0,0,1,1.61,4.8,4.8,0,0,0,1.52,1.09A4.67,4.67,0,0,0,196.89,74.78Zm0,1.62a7,7,0,0,1-2.69-.51,6.22,6.22,0,0,1-2.09-1.41,6.39,6.39,0,0,1-1.37-2.13,7.25,7.25,0,0,1,0-5.29,6.39,6.39,0,0,1,1.37-2.13,6.22,6.22,0,0,1,2.09-1.41,6.79,6.79,0,0,1,2.69-.52,6.71,6.71,0,0,1,2.68.52,6.16,6.16,0,0,1,2.1,1.41A6.55,6.55,0,0,1,203,67.06a7.38,7.38,0,0,1,0,5.29,6.55,6.55,0,0,1-1.37,2.13,6.16,6.16,0,0,1-2.1,1.41A6.88,6.88,0,0,1,196.89,76.4ZM238.3,48.11h1.87l2.54,6.66h0l2.41-6.66h1.75l-4.06,10.37a8.18,8.18,0,0,1-.45,1,2.86,2.86,0,0,1-.55.78,2.24,2.24,0,0,1-.79.51,3.06,3.06,0,0,1-1.12.18,6,6,0,0,1-.73,0,2.74,2.74,0,0,1-.71-.18l.19-1.48a2.64,2.64,0,0,0,1,.2,2,2,0,0,0,.64-.1,1.34,1.34,0,0,0,.45-.29,1.74,1.74,0,0,0,.31-.44,4.58,4.58,0,0,0,.25-.58l.53-1.35Zm-1.07,1.4h-2.32v3.88c0,.24,0,.47,0,.71a2.07,2.07,0,0,0,.13.63,1.13,1.13,0,0,0,.36.45,1.3,1.3,0,0,0,.72.17,4,4,0,0,0,.59-.05,2.07,2.07,0,0,0,.56-.2v1.47a2,2,0,0,1-.75.23,5.74,5.74,0,0,1-.71.06,3.19,3.19,0,0,1-1.45-.26,1.86,1.86,0,0,1-.76-.67,2.24,2.24,0,0,1-.28-.93c0-.34-.05-.69-.05-1V49.51h-1.87v-1.4h1.87v-2.4h1.62v2.4h2.32Zm-14.59-1.4h1.63v1.31h0a2.44,2.44,0,0,1,1.06-1.1,3.47,3.47,0,0,1,1.75-.43,3.89,3.89,0,0,1,1.18.19,2.61,2.61,0,0,1,1,.59,2.81,2.81,0,0,1,.68,1,3.81,3.81,0,0,1,.25,1.46v5.5h-1.62v-5a2.78,2.78,0,0,0-.16-1,1.91,1.91,0,0,0-.44-.69,1.65,1.65,0,0,0-.62-.38,2.19,2.19,0,0,0-.73-.11,2.6,2.6,0,0,0-.93.16,2,2,0,0,0-.76.51,2.4,2.4,0,0,0-.5.89,4.08,4.08,0,0,0-.18,1.28v4.4h-1.63ZM219,51.68a3.43,3.43,0,0,0-.17-1,2.18,2.18,0,0,0-.46-.78,2,2,0,0,0-.77-.52,2.69,2.69,0,0,0-1.07-.19,2.62,2.62,0,0,0-1.09.22,2.7,2.7,0,0,0-.83.59,2.82,2.82,0,0,0-.54.8,2.35,2.35,0,0,0-.18.88ZM213.86,53a2.19,2.19,0,0,0,.24,1,2.31,2.31,0,0,0,.64.78,2.84,2.84,0,0,0,.92.51,3.22,3.22,0,0,0,1.08.18,2.44,2.44,0,0,0,1.31-.35,4.48,4.48,0,0,0,1-.93l1.22.94a4.51,4.51,0,0,1-3.78,1.74,4.7,4.7,0,0,1-1.83-.34,3.87,3.87,0,0,1-1.38-1,4.2,4.2,0,0,1-.88-1.42,5.1,5.1,0,0,1-.3-1.77,4.74,4.74,0,0,1,.33-1.78,4.4,4.4,0,0,1,.92-1.42,4.24,4.24,0,0,1,1.39-1,4.65,4.65,0,0,1,1.77-.34,4.19,4.19,0,0,1,1.92.4,3.74,3.74,0,0,1,1.28,1,4,4,0,0,1,.73,1.45,5.94,5.94,0,0,1,.23,1.63V53Zm-15.93-4.86h1.82l1.93,6.38h0l2-6.38h1.71l2.16,6.38h0l1.84-6.38h1.71l-2.76,8.54h-1.64l-2.25-6.38h0l-2,6.38h-1.75Zm-4.23-2.6h-4.11V43.89h9.95v1.62h-4.11V56.65H193.7Zm28.37-9.59a2.94,2.94,0,0,0,1.17-.23,2.52,2.52,0,0,0,.88-.61,2.67,2.67,0,0,0,.56-.94,3.67,3.67,0,0,0,0-2.39,2.67,2.67,0,0,0-.56-.94,2.52,2.52,0,0,0-.88-.61,3.09,3.09,0,0,0-2.34,0,2.48,2.48,0,0,0-1.44,1.55,3.67,3.67,0,0,0,0,2.39,2.48,2.48,0,0,0,1.44,1.55A2.94,2.94,0,0,0,222.07,35.92ZM217.64,23.6h1.62v6.3h0a3,3,0,0,1,1.25-1,3.92,3.92,0,0,1,1.73-.39,4.5,4.5,0,0,1,1.79.34,4,4,0,0,1,2.24,2.37,4.92,4.92,0,0,1,.31,1.77,4.84,4.84,0,0,1-.31,1.77,4.22,4.22,0,0,1-.87,1.42,4,4,0,0,1-1.37,1,4.68,4.68,0,0,1-1.79.34,4,4,0,0,1-1.69-.38A3.21,3.21,0,0,1,219.29,36h0v1.22h-1.62Zm-2.45,13.61h-1.62V35.9h0A2.45,2.45,0,0,1,212.47,37a3.84,3.84,0,0,1-2.94.23,2.65,2.65,0,0,1-1-.59,2.71,2.71,0,0,1-.67-1,3.9,3.9,0,0,1-.26-1.47V28.68h1.62v5a2.87,2.87,0,0,0,.17,1,1.69,1.69,0,0,0,1.05,1.06,2.24,2.24,0,0,0,.73.12,2.62,2.62,0,0,0,.94-.17,1.89,1.89,0,0,0,.75-.51,2.34,2.34,0,0,0,.51-.89,4.08,4.08,0,0,0,.18-1.28V28.68h1.62ZM203.43,23.6h1.62V37.21h-1.62Zm-3.52,3.62a3.52,3.52,0,0,0-1.36-1.08,4,4,0,0,0-1.72-.38,4.47,4.47,0,0,0-3.45,1.51,5.19,5.19,0,0,0-1,1.65,5.83,5.83,0,0,0-.34,2,5.71,5.71,0,0,0,.32,1.91,4.89,4.89,0,0,0,.94,1.59,4.64,4.64,0,0,0,1.49,1.08,4.92,4.92,0,0,0,2,.4,4,4,0,0,0,1.93-.45,4.37,4.37,0,0,0,1.41-1.27l1.45,1.1a4.62,4.62,0,0,1-.5.57,5.23,5.23,0,0,1-1,.74,6.9,6.9,0,0,1-1.44.65,6.23,6.23,0,0,1-1.93.28,6.35,6.35,0,0,1-2.73-.58A6.59,6.59,0,0,1,192,35.45a6.74,6.74,0,0,1-1.76-4.51,7.31,7.31,0,0,1,.49-2.72,6.45,6.45,0,0,1,1.36-2.17,6.16,6.16,0,0,1,2.1-1.41,6.91,6.91,0,0,1,2.7-.5,6.66,6.66,0,0,1,2.47.48,4.59,4.59,0,0,1,2,1.5Z"/></clipPath><clipPath id="clip-path-8"><rect class="cls-1" x="-73.48" y="-44.34" width="395" height="395"/></clipPath></defs><title>logo4</title><g class="cls-3"><g class="cls-4"><rect class="cls-5" x="-2.48" y="19.59" width="60.83" height="60.83" transform="translate(-27.17 34.4) rotate(-45)"/></g></g><g class="cls-6"><g class="cls-4"><rect class="cls-5" x="57.56" y="19.59" width="60.83" height="60.83" transform="translate(-9.59 76.86) rotate(-45)"/></g></g><g class="cls-7"><g class="cls-8"><rect class="cls-5" x="117.7" y="19.59" width="60.83" height="60.83"/></g></g><g class="cls-9"><g class="cls-10"><rect class="cls-5" x="185.64" y="19.65" width="65.21" height="60.71"/></g></g></svg>