<svg id="Layer_1" data-name="Layer 1" xmlns="http://www.w3.org/2000/svg" xmlns:xlink="http://www.w3.org/1999/xlink" viewBox="0 0 250 100"><defs><style>.cls-1,.cls-2{fill:none;}.cls-1{clip-rule:evenodd;}.cls-3{clip-path:url(#clip-path);}.cls-4{clip-path:url(#clip-path-2);}.cls-5{fill:#ae8157;}.cls-6{clip-path:url(#clip-path-3);}.cls-7{clip-path:url(#clip-path-4);}</style><clipPath id="clip-path"><path class="cls-1" d="M118.3,84v-3h2.48v3Zm-10.63-5.7a4.15,4.15,0,0,0,.16,1.12,2.91,2.91,0,0,0,.49,1,2.45,2.45,0,0,0,.81.68,2.52,2.52,0,0,0,1.17.25,2.38,2.38,0,0,0,2-1,3,3,0,0,0,.46-1,3.85,3.85,0,0,0,0-2.23,2.6,2.6,0,0,0-.49-1,2.54,2.54,0,0,0-.82-.66,2.44,2.44,0,0,0-1.15-.25,2.37,2.37,0,0,0-2,.94,3,3,0,0,0-.47,1A3.75,3.75,0,0,0,107.67,78.33Zm2.6,5.8a5.56,5.56,0,0,1-2.37-.5,5.77,5.77,0,0,1-1.82-1.31,5.83,5.83,0,0,1-1.18-1.86,5.77,5.77,0,0,1-.42-2.16,5.57,5.57,0,0,1,.44-2.17,5.76,5.76,0,0,1,1.21-1.85A6.08,6.08,0,0,1,108,73a5.62,5.62,0,0,1,2.34-.47,5.55,5.55,0,0,1,2.37.49,5.85,5.85,0,0,1,3,3.19,5.69,5.69,0,0,1,.41,2.14,5.53,5.53,0,0,1-.43,2.17,5.82,5.82,0,0,1-1.21,1.84,5.9,5.9,0,0,1-1.84,1.28A5.7,5.7,0,0,1,110.27,84.13ZM92.49,78.22a5.7,5.7,0,0,1,.39-2.06A5.62,5.62,0,0,1,94,74.34,6,6,0,0,1,95.87,73a5.84,5.84,0,0,1,2.46-.49,5.73,5.73,0,0,1,2.88.68A4.5,4.5,0,0,1,103,75l-2.4,1.71a2,2,0,0,0-.43-.69,2.07,2.07,0,0,0-.59-.44,2.23,2.23,0,0,0-.66-.22,3.18,3.18,0,0,0-.67-.07,2.41,2.41,0,0,0-1.17.27,2.37,2.37,0,0,0-.81.69,3.1,3.1,0,0,0-.46,1,4,4,0,0,0-.16,1.07,3.63,3.63,0,0,0,.18,1.14,2.92,2.92,0,0,0,.52,1,2.46,2.46,0,0,0,1.93.91,3.09,3.09,0,0,0,.66-.07,2.54,2.54,0,0,0,.65-.24,2.37,2.37,0,0,0,.57-.43,2.14,2.14,0,0,0,.39-.66l2.56,1.53a3.19,3.19,0,0,1-.78,1.13,5.32,5.32,0,0,1-1.19.84,6.83,6.83,0,0,1-1.44.51,6.43,6.43,0,0,1-1.48.18,5.27,5.27,0,0,1-2.33-.51,5.81,5.81,0,0,1-1.82-1.34,6.15,6.15,0,0,1-1.19-1.9A6,6,0,0,1,92.49,78.22Zm65-15.83v2.73h-8.14V53.69h8v2.74h-4.86V58h4.15v2.54h-4.15v1.81Zm-10.66,0v2.73H138.7V53.69h8v2.74h-4.87V58H146v2.54h-4.16v1.81Zm-18.26,2.73V53.69h7.84v2.74h-4.7v1.9h3.83v2.54h-3.83v4.25Zm-10.11,0V53.69h7.84v2.74h-4.7v1.9h3.83v2.54h-3.83v4.25Zm-10.81-5.7a4.15,4.15,0,0,0,.16,1.12,2.91,2.91,0,0,0,.49,1,2.45,2.45,0,0,0,.81.68,2.52,2.52,0,0,0,1.17.25,2.38,2.38,0,0,0,2-1,3,3,0,0,0,.46-1,3.85,3.85,0,0,0,0-2.23,2.6,2.6,0,0,0-.49-1,2.54,2.54,0,0,0-.82-.66,2.44,2.44,0,0,0-1.15-.25,2.37,2.37,0,0,0-2,.94,3,3,0,0,0-.47,1A3.75,3.75,0,0,0,107.67,59.42Zm2.6,5.8a5.56,5.56,0,0,1-2.37-.5,5.77,5.77,0,0,1-1.82-1.31,5.83,5.83,0,0,1-1.18-1.86,5.77,5.77,0,0,1-.42-2.16,5.57,5.57,0,0,1,.44-2.17,5.76,5.76,0,0,1,1.21-1.85A6.08,6.08,0,0,1,108,54.1a5.62,5.62,0,0,1,2.34-.47,5.55,5.55,0,0,1,2.37.49,5.85,5.85,0,0,1,3,3.19,5.69,5.69,0,0,1,.41,2.14,5.53,5.53,0,0,1-.43,2.17,5.82,5.82,0,0,1-1.21,1.84,5.9,5.9,0,0,1-1.84,1.28A5.7,5.7,0,0,1,110.27,65.22ZM92.49,59.31a5.7,5.7,0,0,1,.39-2.06A5.62,5.62,0,0,1,94,55.43a6,6,0,0,1,1.84-1.31,5.84,5.84,0,0,1,2.46-.49,5.73,5.73,0,0,1,2.88.68A4.5,4.5,0,0,1,103,56.12l-2.4,1.71a2,2,0,0,0-.43-.69,2.07,2.07,0,0,0-.59-.44,2.23,2.23,0,0,0-.66-.22,3.18,3.18,0,0,0-.67-.07,2.41,2.41,0,0,0-1.17.27,2.37,2.37,0,0,0-.81.69,3.1,3.1,0,0,0-.46,1,4,4,0,0,0-.16,1.07,3.63,3.63,0,0,0,.18,1.14,2.92,2.92,0,0,0,.52,1,2.46,2.46,0,0,0,1.93.91,3.09,3.09,0,0,0,.66-.07,2.54,2.54,0,0,0,.65-.24,2.37,2.37,0,0,0,.57-.43,2.14,2.14,0,0,0,.39-.66l2.56,1.53a3.19,3.19,0,0,1-.78,1.13,5.32,5.32,0,0,1-1.19.84,6.83,6.83,0,0,1-1.44.51,6.43,6.43,0,0,1-1.48.18,5.27,5.27,0,0,1-2.33-.51,5.81,5.81,0,0,1-1.82-1.34,6.15,6.15,0,0,1-1.19-1.9A6,6,0,0,1,92.49,59.31Zm51.8-18.83a4.21,4.21,0,0,0-.17-1.21,2.79,2.79,0,0,0-.51-.93,2.34,2.34,0,0,0-.81-.61,2.74,2.74,0,0,0-1.08-.21h-1.26v6h1.26a2.56,2.56,0,0,0,1.09-.23,2.28,2.28,0,0,0,.81-.63,2.69,2.69,0,0,0,.5-.95A3.76,3.76,0,0,0,144.29,40.48Zm-7,5.73V34.78h4.4a6.43,6.43,0,0,1,2.49.45A5.3,5.3,0,0,1,146,36.45a5.23,5.23,0,0,1,1.09,1.82,6.45,6.45,0,0,1,.37,2.21,6.53,6.53,0,0,1-.41,2.36,5,5,0,0,1-1.17,1.8,5.12,5.12,0,0,1-1.82,1.16,6.36,6.36,0,0,1-2.36.41Zm-10-5.62v5.62h-3.14V34.78h2.45l4.59,5.81V34.78h3.14V46.21h-2.5ZM118,46.21V34.78h3.14V46.21ZM109.2,40h2a.67.67,0,0,0,.54-.33,1.4,1.4,0,0,0,.25-.9,1.26,1.26,0,0,0-.29-.91.79.79,0,0,0-.58-.31h-1.9Zm-3.14,6.24V34.78h5.25a3.49,3.49,0,0,1,1.55.35,3.91,3.91,0,0,1,1.21.9,4.08,4.08,0,0,1,.8,1.27,3.89,3.89,0,0,1,.29,1.44,4,4,0,0,1-.43,1.86A3.77,3.77,0,0,1,113.52,42l2.41,4.2h-3.54l-2-3.51H109.2v3.51Zm-5.18-1a4.25,4.25,0,0,1-2.82,1,5.91,5.91,0,0,1-2.13-.39,5.2,5.2,0,0,1-1.77-1.15A5.71,5.71,0,0,1,93,42.9a6.55,6.55,0,0,1-.45-2.5A5.62,5.62,0,0,1,93,38.15a5.67,5.67,0,0,1,1.24-1.8,6,6,0,0,1,1.86-1.21,6.13,6.13,0,0,1,2.31-.44,6.61,6.61,0,0,1,1.49.17,5.15,5.15,0,0,1,1.31.5,5,5,0,0,1,1.08.79,3.63,3.63,0,0,1,.79,1L100.7,39a2.58,2.58,0,0,0-1-1.08,2.64,2.64,0,0,0-1.43-.41,2.29,2.29,0,0,0-1.83.85,3,3,0,0,0-.54,1,3.61,3.61,0,0,0-.19,1.21,3.69,3.69,0,0,0,.19,1.23,2.89,2.89,0,0,0,.54.94,2.39,2.39,0,0,0,.83.61,2.51,2.51,0,0,0,1.08.22,3.23,3.23,0,0,0,2.42-1.13h-2V40.13h4.7v6.08h-2.59ZM134.4,15.87l2,4.94,2.09-4.94H142l-4,7.65V27.3h-3.12V23.49L131,15.87ZM123.16,27.3V15.87h3.14v8.7h5.19V27.3Zm-6.15,0V15.87h3.14V27.3ZM110.64,23l-1-3.54L108.56,23Zm-2.45-7.1h2.86l4,11.43h-3.19l-.7-2.23h-3l-.68,2.23h-3.2Zm-8.1,5.7a3.89,3.89,0,0,0-.18-1.21,2.79,2.79,0,0,0-.51-.93,2.34,2.34,0,0,0-.81-.61,2.67,2.67,0,0,0-1.08-.21H96.25v6h1.26a2.61,2.61,0,0,0,1.1-.23,2.28,2.28,0,0,0,.81-.63,2.69,2.69,0,0,0,.5-.95A4.07,4.07,0,0,0,100.09,21.57Zm-7,5.73V15.87h4.4a6.45,6.45,0,0,1,2.5.45,5.16,5.16,0,0,1,1.8,1.22,5.25,5.25,0,0,1,1.1,1.82,6.7,6.7,0,0,1,.37,2.21,6.53,6.53,0,0,1-.41,2.36,5.29,5.29,0,0,1-1.17,1.8,5.21,5.21,0,0,1-1.82,1.16,6.41,6.41,0,0,1-2.37.41Z"/></clipPath><clipPath id="clip-path-2"><rect class="cls-2" x="-25.85" y="-22.56" width="305" height="305"/></clipPath><clipPath id="clip-path-3"><path class="cls-2" d="M76.2,1.2h97.6V98.8H76.2Zm6.71,6.71V92.09h84.18V7.91Z"/></clipPath><clipPath id="clip-path-4"><rect class="cls-2" x="-27.5" y="-23.81" width="305" height="305"/></clipPath></defs><title>logo6</title><g class="cls-3"><g class="cls-4"><rect class="cls-5" x="89.44" y="12.82" width="71.13" height="74.36"/></g></g><g class="cls-6"><g class="cls-7"><rect class="cls-5" x="73.15" y="-1.85" width="103.7" height="103.7"/></g></g></svg>