<svg id="Layer_1" data-name="Layer 1" xmlns="http://www.w3.org/2000/svg" xmlns:xlink="http://www.w3.org/1999/xlink" viewBox="0 0 250 100"><defs><style>.cls-1,.cls-2{fill:none;}.cls-1{clip-rule:evenodd;}.cls-3{clip-path:url(#clip-path);}.cls-4{clip-path:url(#clip-path-2);}.cls-5{fill:#ae8157;}</style><clipPath id="clip-path"><path class="cls-1" d="M203.65,38.83A7.16,7.16,0,0,0,200,40.88a15.17,15.17,0,0,0-2.7,3.78,24.13,24.13,0,0,0-1.79,4.64,26.59,26.59,0,0,0-.87,4.64,19.21,19.21,0,0,0,6.42-5,17.51,17.51,0,0,0,3.59-7.58v.06a2.45,2.45,0,0,0,.16-1,6.68,6.68,0,0,0-.1-.89C204.5,38.87,204.16,38.66,203.65,38.83Zm5.45,5.25a21.81,21.81,0,0,1-5.2,9.6,22.17,22.17,0,0,1-8.85,5.7,12.06,12.06,0,0,0,1.54,3.27,4.12,4.12,0,0,0,2.63,1.86l-.13-.07a5.18,5.18,0,0,0,2.89-.19,9.37,9.37,0,0,0,3.08-1.83,17.89,17.89,0,0,0,3-3.42,24.38,24.38,0,0,0,2.63-5c.39-1,.74-2.08,1.06-3.17s.61-2.12.87-3.1a1.4,1.4,0,0,1,1.25-.9,2.79,2.79,0,0,1,1.66.42,3.54,3.54,0,0,1,1.29,1.34,2.48,2.48,0,0,1,.16,2l-.64,2.3a63.75,63.75,0,0,1-2.41,6.37A33.49,33.49,0,0,1,210,66a12.62,12.62,0,0,1-3.11,2.78,14.28,14.28,0,0,1-3.18,1.48,12.6,12.6,0,0,1-2.85.57c-.88.07-1.57.1-2.09.1A12.45,12.45,0,0,1,190.4,68a15.32,15.32,0,0,1-4.71-7.88,21.26,21.26,0,0,1-.68-8.52,35.4,35.4,0,0,1,2.6-9,17.54,17.54,0,0,1,2.09-3.43A19.19,19.19,0,0,1,193,35.82a16.74,16.74,0,0,1,4.2-2.5,11.82,11.82,0,0,1,4.87-.9,7.41,7.41,0,0,1,4.68,1.77,8,8,0,0,1,2.7,4.57,10.17,10.17,0,0,1-.32,5.38ZM156.25,56.76a.25.25,0,0,0-.06.19,5.9,5.9,0,0,0,.06.86,7.6,7.6,0,0,0,.19.87,7.86,7.86,0,0,0,1.19,2.53,3,3,0,0,0,2.28,1.25,4.35,4.35,0,0,0,2.91-.9,12.39,12.39,0,0,0,2.76-2.79,20.49,20.49,0,0,0,2.34-4.06,35.62,35.62,0,0,0,1.7-4.64,25.9,25.9,0,0,0,.9-4.58,12,12,0,0,0-.16-3.91c-.34-1.32-1-2-2.05-2a8,8,0,0,0-2.92.45,10.67,10.67,0,0,0-2.89,1.51,16.58,16.58,0,0,0-2.59,2.33,15.88,15.88,0,0,0-2.12,3c-.26,1.58-.53,3.24-.8,5s-.51,3.42-.68,5Zm-6.86-23.82a2.1,2.1,0,0,1,1.7-.1,9.89,9.89,0,0,1,2.43,1,16.06,16.06,0,0,1,2.54,1.76,10.83,10.83,0,0,1,2,2.17,19.68,19.68,0,0,1,5.16-3.93,9.83,9.83,0,0,1,5.93-1.13A11,11,0,0,1,172.86,34a10.24,10.24,0,0,1,2.76,2.24,13.09,13.09,0,0,1,1.92,3,15.58,15.58,0,0,1,1.16,3.43,29.62,29.62,0,0,1,.48,3,16.78,16.78,0,0,1,.09,2.79,29.55,29.55,0,0,1-1.41,7.78,26.54,26.54,0,0,1-3.3,6.88,19.65,19.65,0,0,1-4.94,5.09,13.17,13.17,0,0,1-6.19,2.41,10.89,10.89,0,0,1-5.19-1.35A12.58,12.58,0,0,1,154.52,66a41.93,41.93,0,0,0,.54,8.14q.67,4.16,1.38,9c.09.52-.22.77-.93.77a7.09,7.09,0,0,1-2.47-.54,14,14,0,0,1-2.69-1.38,4.16,4.16,0,0,1-1.67-1.73,41.78,41.78,0,0,1-2.12-9.44,59.11,59.11,0,0,1-.19-9,85.5,85.5,0,0,1,1-8.77c.47-2.91.9-5.85,1.29-8.84q.25-3.08.51-6C149.3,36.39,149.39,34.6,149.39,32.94Zm-34.19,60a8.89,8.89,0,0,0,3.88-.84,10.49,10.49,0,0,0,3.21-2.36,18.17,18.17,0,0,0,2.6-3.65,31.54,31.54,0,0,0,2-4.68,25.36,25.36,0,0,0-4-1.09,28.78,28.78,0,0,0-4.32-.45,21.3,21.3,0,0,0-4.4.48,13.27,13.27,0,0,0-4,1.51,7.53,7.53,0,0,0-2.66,2.56,4.48,4.48,0,0,0-.35,3.65,4.82,4.82,0,0,0,1.22,2.4,7,7,0,0,0,2,1.47,8.89,8.89,0,0,0,2.37.77A13.31,13.31,0,0,0,115.2,92.94Zm1.93-60.26a2.75,2.75,0,0,1,2.31.13,11.38,11.38,0,0,1,3.07,1.79,13.94,13.94,0,0,1,2.67,2.76,4.71,4.71,0,0,1,1,3c0,.39-.12,1-.25,1.73s-.3,1.65-.52,2.63l.07-.06-.87,4.7c-.32,1.73-.58,3.45-.77,5.16s-.32,3.32-.38,4.83A11.52,11.52,0,0,0,123.8,63c-.09.34-.11.51-.07.51h.58a7.15,7.15,0,0,0,2.82-2.08,16,16,0,0,0,2.12-3.27,31.43,31.43,0,0,0,1.6-3.9c.47-1.39.92-2.74,1.35-4.07h-.07c.13-.42.3-.92.52-1.47q.32-3.52.61-7.52c.19-2.67.33-5.42.41-8.23a3,3,0,0,1,2.38.09,12.44,12.44,0,0,1,3.2,1.7A13.57,13.57,0,0,1,142,37.39a4.5,4.5,0,0,1,1.13,3l-3.53,25.3c-.34,2.39-.69,4.65-1,6.79s-.73,4.16-1.15,6.08c1.62.9,3.24,1.85,4.84,2.85s3.22,2,4.84,3.1l-.06-.12a4.07,4.07,0,0,1,.61.44,2.91,2.91,0,0,0,.61.45c.85.56,1.14,1.2.86,1.92a4.87,4.87,0,0,1-1.57,2A8.32,8.32,0,0,1,145,90.6a2.77,2.77,0,0,1-2.12.1l-3.21-2.18-4.42-2.88a30.14,30.14,0,0,1-2.79,5.25,16.27,16.27,0,0,1-3.72,3.9,15.84,15.84,0,0,1-4.94,2.44,22.53,22.53,0,0,1-6.38.83,20.62,20.62,0,0,1-4.65-.54,17.36,17.36,0,0,1-4.43-1.7,12.47,12.47,0,0,1-3.62-3,10.85,10.85,0,0,1-2.18-4.55,12.9,12.9,0,0,1,0-6.3,11.61,11.61,0,0,1,2.76-5.06,13.35,13.35,0,0,1,5-3.33,17.62,17.62,0,0,1,6.57-1.19c1.33,0,2.52.06,3.59.16s2.07.26,3,.45,1.84.43,2.72.7,1.81.59,2.79.93c.26-1.36.51-2.72.77-4.06s.49-2.75.71-4.2l-.77,1a9.87,9.87,0,0,1-1,1.12,8.58,8.58,0,0,1-1.51,1.12,9.63,9.63,0,0,1-1.92.86,7.27,7.27,0,0,1-2.34.36,6,6,0,0,1-4.59-2.37A14.68,14.68,0,0,1,115.72,63q-.19-.7-.36-1.53A8.86,8.86,0,0,1,115.2,60a27.75,27.75,0,0,1-.06-3.23c0-1.22.12-2.48.22-3.78s.22-2.65.32-4,.23-2.76.36-4.13c.17-2.17.33-4.26.48-6.24s.22-3.64.22-5ZM48.18,71.42a16,16,0,0,0,7.63-2,29.49,29.49,0,0,0,7-5.25,48.45,48.45,0,0,0,6.16-7.65,88,88,0,0,0,5.22-9.16,59.86,59.86,0,0,0-9.81-.77c-.73,0-1.42,0-2.08,0s-1.36.06-2.09.1a31,31,0,0,0-8.85,2.08A30.36,30.36,0,0,0,43.85,53,17.9,17.9,0,0,0,39,58.45a8.09,8.09,0,0,0-.93,5.93A10.69,10.69,0,0,0,40,67.58a11.13,11.13,0,0,0,2.53,2.21A10.46,10.46,0,0,0,45.36,71,11.42,11.42,0,0,0,48.18,71.42ZM103.47,5.34c.08-.26.39-.34.93-.26a6.56,6.56,0,0,1,1.85.67,23.12,23.12,0,0,1,2.28,1.38A14.22,14.22,0,0,1,110.74,9a10.71,10.71,0,0,1,1.64,2.14,3.86,3.86,0,0,1,.58,2.15,65.38,65.38,0,0,0-3.47,8.07q-1.6,4.47-2.95,9.44c-.89,3.31-1.7,6.71-2.4,10.22s-1.32,7-1.83,10.43c1.33.73,2.66,1.41,4,2.05s2.7,1.26,4.07,1.86a1.46,1.46,0,0,1,1.16,1.15,3.15,3.15,0,0,1-.26,1.73,5.22,5.22,0,0,1-1.12,1.63,3.35,3.35,0,0,1-1.51.93l-5.84-2.69-1.34-.57q-.7,6.53-.87,12.1a60.83,60.83,0,0,0,.35,9.48c.05.34-.3.31-1-.1a19.12,19.12,0,0,1-2.47-1.7A31.77,31.77,0,0,1,94.87,75a5.86,5.86,0,0,1-1.41-1.76,43.67,43.67,0,0,1-.64-8.68q.06-5,.58-10.85-2.7-1.22-5.17-2.21c-1.64-.66-3.28-1.27-4.9-1.83a93.66,93.66,0,0,1-6.1,11.15A61,61,0,0,1,70,70.2a35.27,35.27,0,0,1-8.09,6.44A17.12,17.12,0,0,1,53.37,79q-8.26,0-13.14-3.39T33.56,64.57A19.68,19.68,0,0,1,33,57.3,18.28,18.28,0,0,1,34.94,51a20.42,20.42,0,0,1,3.94-5.25,26,26,0,0,1,5.52-4.09,29.65,29.65,0,0,1,6.67-2.73,37,37,0,0,1,7.37-1.24c.64,0,1.29-.08,2-.1l1.89,0a54,54,0,0,1,8,.57,48.68,48.68,0,0,1,7.24,1.67q1.68-4.09,2.92-8.07a76.58,76.58,0,0,0,2-7.49,63.81,63.81,0,0,0,1-6.41,21.43,21.43,0,0,0,0-4.8,7.18,7.18,0,0,0-2.21-3.81A5.54,5.54,0,0,0,77.49,8a13.31,13.31,0,0,0-7.6,2.18,18.82,18.82,0,0,0-5.45,5.67,27.64,27.64,0,0,0-3.37,7.87,36.67,36.67,0,0,0-1.22,8.87v.07c-.08.51-.53,1-1.34,1.47a11.3,11.3,0,0,1-2.63,1.09,8.4,8.4,0,0,1-2.57.32c-.77,0-1.15-.34-1.15-.9l-.13.07L52,33.51q-.06-1.15-.06-1.92t0-1.53a13.36,13.36,0,0,1,.19-1.67c.11-.6.25-1.34.42-2.24a37.67,37.67,0,0,1,3-8.65,32.29,32.29,0,0,1,5.1-7.68,27.35,27.35,0,0,1,6.89-5.57,17.71,17.71,0,0,1,8.28-2.31,13.36,13.36,0,0,1,5.13.9A16.23,16.23,0,0,1,85.44,5.5,18.12,18.12,0,0,1,89,9.5a16.4,16.4,0,0,1,2.25,5,30.39,30.39,0,0,1,.22,5.93,52,52,0,0,1-.83,7q-.67,3.68-1.8,7.65c-.74,2.65-1.63,5.31-2.66,8,1.37.6,2.7,1.24,4,1.93s2.59,1.36,3.91,2q.77-5.82,1.83-11.78t2.31-11.43q1.24-5.47,2.6-10.24c.89-3.18,1.77-5.91,2.63-8.17Z"/></clipPath><clipPath id="clip-path-2"><rect class="cls-2" x="-89.93" y="-58.58" width="445" height="445"/></clipPath></defs><title>logo5</title><g class="cls-3"><g class="cls-4"><rect class="cls-5" x="28.44" y="-2.51" width="193.13" height="105.02"/></g></g></svg>