<svg id="Layer_1" data-name="Layer 1" xmlns="http://www.w3.org/2000/svg" xmlns:xlink="http://www.w3.org/1999/xlink" viewBox="0 0 250 100"><defs><style>.cls-1,.cls-2{fill:none;}.cls-2{clip-rule:evenodd;}.cls-3{clip-path:url(#clip-path);}.cls-4{clip-path:url(#clip-path-2);}.cls-5{fill:#ae8157;}.cls-6{clip-path:url(#clip-path-3);}.cls-7{clip-path:url(#clip-path-4);}</style><clipPath id="clip-path"><path class="cls-1" d="M1,7.66H249V92.34H1ZM5.34,12V88H244.66V12Z"/></clipPath><clipPath id="clip-path-2"><rect class="cls-1" x="-91.43" y="-58" width="432" height="432"/></clipPath><clipPath id="clip-path-3"><path class="cls-2" d="M200.39,69.21V30.46h5.33L212.85,51H213L220,30.46h5.39V69.21h-5.56V45.65h-.1l-5.5,16.65h-2.78l-5.44-16.65h-.11V69.21ZM187.54,30.46V60.51a8.75,8.75,0,0,1-2.61,6.36,9.07,9.07,0,0,1-2.89,2,8.5,8.5,0,0,1-3.48.71,8.4,8.4,0,0,1-3.46-.71A9.51,9.51,0,0,1,170.29,64a8.63,8.63,0,0,1-.71-3.51v-30h5.55V60a4.17,4.17,0,0,0,1,3,3.55,3.55,0,0,0,4.9,0,4.17,4.17,0,0,0,1-3V30.46ZM131.7,69.21V30.46H137L144.16,51h.11l7.08-20.52h5.38V69.21h-5.55V45.65h-.11L145.58,62.3H142.8l-5.44-16.65h-.11V69.21Zm-18.57,0V30.46h5.56V69.21ZM81,69.21V30.46H86.3l8.38,23.35h.11V30.46h5.55V69.21H95.12L86.63,45.92h-.11V69.21Zm-18.34,0V30.46h5.55V69.21Zm-38,0V30.46h5.34L37,51h.11l7.07-20.52h5.39V69.21H44.06V45.65H44L38.45,62.3H35.68L30.23,45.65h-.1V69.21Z"/></clipPath><clipPath id="clip-path-4"><rect class="cls-1" x="-101.53" y="-62.98" width="453.6" height="453.6"/></clipPath></defs><title>logo2</title><g class="cls-3"><g class="cls-4"><rect class="cls-5" x="-3.3" y="3.34" width="256.61" height="93.31"/></g></g><g class="cls-6"><g class="cls-7"><rect class="cls-5" x="20.04" y="25.92" width="209.93" height="48.15"/></g></g></svg>